Jump_normalized_Motion_pl07
version=1
nRows=20
nColumns=43
inDegrees=yes
endheader
time		pelvis_tilt		pelvis_list		pelvis_rotation		pelvis_tx		pelvis_ty		pelvis_tz		hip_flexion_r		hip_adduction_r		hip_rotation_r		knee_angle_r		ankle_angle_r		subtalar_angle_r		mtp_angle_r		hip_flexion_l		hip_adduction_l		hip_rotation_l		knee_angle_l		ankle_angle_l		subtalar_angle_l		mtp_angle_l		lumbar_extension		lumbar_bending		lumbar_rotation		neck_flexion		neck_lateral_bending		neck_rotation		arm_flex_r		arm_add_r		arm_rot_r		elbow_flex_r		pro_sup_r		wrist_flex_r		wrist_dev_r		hand_finger_flex_r		arm_flex_l		arm_add_l		arm_rot_l		elbow_flex_l		pro_sup_l		wrist_flex_l		wrist_dev_l		hand_finger_flex_l		
0.077500		-0.078589		-23.038507		91.483514		0.017744		1.652430		1.856925		97.524694		-14.788606		12.724985		-145.058261		45.660938		7.047553		-27.003709		97.517347		-13.910766		6.727471		-143.501656		46.094601		-4.663685		-32.081307		-38.590902		-2.023968		0.125950		40.643521		2.687238		3.087349		62.076495		-35.111554		16.090718		87.234684		60.515145		-15.856742		-17.102534		57.638932		80.967481		-38.103841		45.041963		81.304769		70.964455		-44.219551		6.637999		70.697510		
0.079848		-0.035308		-23.281515		91.501160		0.017775		1.652214		1.855694		97.545366		-14.796478		12.679511		-145.033877		45.708188		7.041992		-26.987933		97.556533		-13.869030		6.770922		-143.479441		46.143059		-4.723115		-32.072300		-38.349312		-2.001811		0.169726		40.655100		2.779946		3.084311		63.465894		-35.086879		16.943324		87.257957		60.413045		-16.041980		-16.995570		57.654135		82.049723		-37.598159		45.431653		81.339206		70.860336		-44.249466		6.689297		70.641005		
0.082197		-0.006928		-23.521864		91.526462		0.017895		1.652132		1.854341		97.532243		-14.787557		12.637029		-145.008289		45.734604		7.046367		-26.980301		97.573745		-13.831775		6.811688		-143.449419		46.161913		-4.758643		-32.068579		-38.101663		-2.007539		0.193269		40.832940		2.840620		3.068724		64.655932		-34.753210		17.376920		87.190724		60.376292		-16.146881		-16.900661		57.607922		83.011181		-36.941046		45.577516		81.243614		70.819520		-44.257262		6.717543		70.582414		
0.084545		0.119889		-23.424081		91.563616		0.018029		1.652218		1.852865		97.147796		-14.784440		12.489058		-145.073987		45.766821		7.014719		-26.947809		97.321741		-13.841173		6.985833		-143.511228		46.102298		-4.864048		-32.072656		-38.184314		-1.897659		0.164654		40.611530		2.835396		3.157673		66.287473		-34.530130		18.516580		87.042592		59.814111		-16.817745		-16.786938		57.515072		84.471992		-36.755023		46.515563		81.274407		70.422836		-44.433481		6.838395		70.492832		
0.086894		0.177270		-23.621309		91.582581		0.018066		1.652169		1.851461		97.093495		-14.799146		12.405768		-145.058091		45.794639		7.000983		-26.924003		97.284919		-13.817782		7.034296		-143.487195		46.156572		-4.928594		-32.065453		-37.978097		-1.866632		0.176789		40.574590		2.939426		3.181931		67.714945		-34.442120		19.421809		87.018369		59.613331		-17.132435		-16.684084		57.496433		85.588136		-36.309398		46.965243		81.297912		70.162481		-44.555841		6.862396		70.437167		
0.089242		0.262529		-23.658253		91.608794		0.018193		1.652351		1.849920		96.838244		-14.795725		12.278322		-145.062601		45.805332		6.970417		-26.874760		97.094776		-13.817830		7.148652		-143.485847		46.135046		-4.981366		-32.060772		-37.938209		-1.792319		0.142682		40.551282		2.931647		3.271999		69.175129		-34.102386		20.301437		86.903152		59.091120		-17.841138		-16.685721		57.492508		86.808408		-35.986337		47.559416		81.314637		69.585630		-44.884207		6.807509		70.389992		
0.091591		0.322305		-23.842667		91.625064		0.018237		1.652427		1.848407		96.749647		-14.796163		12.191085		-145.033677		45.815170		6.955551		-26.840100		97.018696		-13.795664		7.210467		-143.455205		46.174816		-5.037063		-32.050403		-37.740729		-1.754632		0.161452		40.545009		2.999948		3.298756		70.533098		-33.886546		21.045297		86.833329		58.879714		-18.216272		-16.626789		57.506986		87.883849		-35.517809		47.946200		81.302809		69.257486		-45.051354		6.757530		70.369384		
0.093939		0.388663		-24.031305		91.636411		0.018280		1.652562		1.846848		96.647386		-14.788664		12.093457		-144.988805		45.817926		6.943643		-26.812193		96.931481		-13.770401		7.279141		-143.416859		46.208430		-5.099377		-32.037868		-37.535212		-1.722306		0.212745		40.522152		3.064780		3.296080		71.856517		-33.691937		21.712753		86.749726		58.810711		-18.453705		-16.517144		57.495591		88.959158		-35.003276		48.309562		81.241428		69.068347		-45.104114		6.729697		70.370051		
0.096288		0.446195		-24.217804		91.646400		0.018351		1.652793		1.845220		96.531688		-14.774040		12.000633		-144.939035		45.819954		6.933871		-26.790990		96.829632		-13.748823		7.345351		-143.367711		46.220423		-5.141310		-32.027224		-37.332076		-1.699252		0.251683		40.585500		3.105779		3.296978		73.059206		-33.341770		22.145153		86.638474		58.733975		-18.668164		-16.431316		57.448098		89.955854		-34.443745		48.529964		81.141388		68.924354		-45.145613		6.707803		70.354729		
0.098636		0.543057		-24.276159		91.666012		0.018460		1.653167		1.843484		96.248933		-14.752469		11.846558		-144.901127		45.816854		6.873860		-26.740823		96.610703		-13.748258		7.477253		-143.347380		46.206086		-5.166335		-31.995120		-37.270469		-1.627653		0.270603		40.593637		3.097584		3.359799		74.383948		-32.973535		22.756159		86.517323		58.437291		-19.187296		-16.376372		57.362043		91.090759		-34.041858		48.949858		81.095713		68.549406		-45.279561		6.626258		70.373375		
0.100985		0.647044		-24.340483		91.684621		0.018570		1.653579		1.841709		95.955079		-14.731450		11.669302		-144.850465		45.811597		6.807027		-26.682069		96.381277		-13.750874		7.612183		-143.317869		46.208403		-5.194615		-31.953498		-37.202080		-1.549428		0.289534		40.558636		3.110016		3.428186		75.756154		-32.662669		23.475655		86.394231		58.112646		-19.759288		-16.320434		57.283963		92.252100		-33.689470		49.424639		81.072917		68.120354		-45.433957		6.524461		70.405166		
0.103333		0.707307		-24.602040		91.687211		0.018629		1.653879		1.839974		95.884223		-14.714509		11.547205		-144.763276		45.808056		6.796831		-26.655398		96.309359		-13.733907		7.662747		-143.234799		46.263396		-5.235283		-31.921861		-36.916505		-1.533200		0.339657		40.576058		3.211050		3.422789		76.952281		-32.410077		23.969002		86.292318		58.089231		-19.931356		-16.236305		57.253326		93.199231		-33.161031		49.602450		80.999114		67.995732		-45.449288		6.479549		70.405089		
0.105682		0.832681		-24.712643		91.697685		0.018728		1.654320		1.838135		95.615778		-14.681585		11.346828		-144.691784		45.792348		6.746250		-26.604838		96.112186		-13.741981		7.803125		-143.190678		46.273575		-5.285557		-31.866149		-36.789631		-1.459663		0.407370		40.464681		3.253693		3.453852		78.321358		-32.235191		24.719054		86.173225		57.965149		-20.299437		-16.145761		57.210852		94.358400		-32.786376		50.083821		80.945373		67.759591		-45.451503		6.417975		70.450003		
0.108030		0.937429		-24.846812		91.711686		0.018851		1.654870		1.836225		95.357206		-14.649891		11.160913		-144.606580		45.786933		6.687840		-26.553623		95.909084		-13.745675		7.923617		-143.119611		46.279210		-5.302142		-31.805306		-36.645248		-1.397372		0.448330		40.506274		3.293449		3.490074		79.550362		-31.877029		25.215823		86.019933		57.781856		-20.699353		-16.107712		57.157191		95.396970		-32.360681		50.362094		80.862673		67.509470		-45.494335		6.335073		70.474013		
0.110379		0.992067		-25.078127		91.714875		0.018955		1.655402		1.834281		95.201076		-14.622304		11.042117		-144.499081		45.778500		6.666073		-26.528345		95.776434		-13.724472		7.990426		-143.025740		46.284116		-5.308553		-31.768880		-36.393880		-1.384245		0.483928		40.600889		3.328268		3.505940		80.585608		-31.457738		25.429633		85.886665		57.699611		-20.908712		-16.079106		57.104777		96.267092		-31.839576		50.404673		80.778350		67.399515		-45.508566		6.289840		70.460921		
0.112727		1.156615		-25.104616		91.735571		0.019078		1.656145		1.832251		94.780384		-14.579979		10.761576		-144.403388		45.764119		6.561731		-26.455509		95.462900		-13.749823		8.179088		-142.962131		46.282671		-5.342792		-31.666621		-36.370136		-1.269920		0.548451		40.491454		3.373228		3.569494		82.027747		-31.269186		26.263550		85.714639		57.497322		-21.413908		-16.013428		57.049777		97.504597		-31.574470		50.964995		80.732234		67.110801		-45.470448		6.232413		70.520505		
0.115076		1.287258		-25.168702		91.760477		0.019218		1.656989		1.830165		94.388489		-14.542841		10.516481		-144.289951		45.750865		6.435123		-26.354935		95.158326		-13.753192		8.337525		-142.870063		46.284358		-5.329935		-31.518558		-36.312528		-1.167823		0.571443		40.550220		3.376744		3.662376		83.333793		-30.888246		26.899558		85.498355		57.128808		-22.086491		-16.061325		57.027290		98.600700		-31.284278		51.312857		80.694638		66.681975		-45.549612		6.104963		70.562143		
0.117424		1.379538		-25.326949		91.780682		0.019329		1.657784		1.828053		94.095384		-14.513870		10.326841		-144.163133		45.729755		6.370465		-26.268402		94.936792		-13.765518		8.412882		-142.752060		46.293482		-5.344428		-31.384866		-36.147956		-1.099266		0.572407		40.568975		3.409450		3.712098		84.535637		-30.538755		27.434567		85.342461		56.891624		-22.548714		-16.104461		57.060652		99.598269		-30.931773		51.538318		80.617803		66.377362		-45.617043		6.013327		70.578372		
0.119773		1.468651		-25.433332		91.800338		0.019418		1.658733		1.825862		93.736775		-14.495529		10.128761		-144.023274		45.716894		6.299887		-26.174776		94.632656		-13.749655		8.498737		-142.625431		46.275898		-5.366864		-31.242747		-36.045907		-1.033240		0.588133		40.602767		3.421229		3.766082		85.744354		-30.183157		27.924978		85.137861		56.655048		-23.008674		-16.152244		57.101704		100.620369		-30.584048		51.788534		80.549090		66.096487		-45.667703		5.947031		70.596483		
0.122121		1.548232		-25.551952		91.822345		0.019451		1.659727		1.823619		93.385011		-14.487388		9.950099		-143.883182		45.705062		6.229333		-26.076250		94.314913		-13.721253		8.560875		-142.487296		46.264797		-5.395583		-31.092369		-35.929161		-0.966068		0.596919		40.637771		3.436453		3.820871		86.946743		-29.830150		28.407671		84.910211		56.422133		-23.446349		-16.202324		57.149869		101.618924		-30.244009		52.014680		80.479275		65.825992		-45.726797		5.900258		70.610182		
